<svg width="27" height="27" viewBox="0 0 27 27" fill="none" xmlns="http://www.w3.org/2000/svg">
<path d="M0 0H27V27H0V0Z" fill="white"/>
<path d="M27 0V27H0V0H27ZM1 26H26V1H1V26Z" fill="black"/>
<path fill-rule="evenodd" clip-rule="evenodd" d="M8.54242 1.03121C8.54242 1.59833 8.48583 2.57696 8.41658 3.20584C8.34734 3.83471 8.29041 4.35835 8.29007 4.36943C8.28973 4.38062 8.12805 4.43854 7.93093 4.49829C7.44571 4.6453 6.89899 5.2889 6.83034 5.7937C6.76725 6.25778 6.84029 7.08959 6.95534 7.21691C7.01336 7.28105 7.0735 7.25171 7.13844 7.12744C7.31936 6.78122 7.63455 6.5044 7.91592 6.44465C8.62204 6.29449 9.63653 7.17256 10.1863 8.40985C10.5137 9.14674 11.0979 10.714 11.0571 10.7465C11.0144 10.7807 10.4743 11.0579 10.0264 11.2755C9.00184 11.7732 8.22555 11.7555 7.72733 11.223C7.44663 10.923 7.42707 10.8664 7.46671 10.4677C7.49547 10.1786 7.47767 10.0368 7.41265 10.0368C7.23291 10.0368 6.68324 10.6259 6.51574 10.9981C6.30403 11.4684 6.30631 11.7514 6.52628 12.331L6.70298 12.7967L6.40128 13.3118C6.2353 13.5952 5.85212 14.1557 5.54975 14.5572C5.24738 14.9589 5 15.3255 5 15.3718C5 15.4182 5.54089 15.4829 6.20189 15.5157C7.70523 15.5902 7.88843 15.6439 7.95809 16.0301C8.07187 16.6604 8.75337 17.3023 9.30708 17.3009C9.54949 17.3003 10.1449 17.1231 10.1449 17.0516C10.1449 17.0243 10.0121 16.8599 9.84975 16.6864C9.49508 16.3073 9.46506 15.9464 9.73546 15.3132C9.86813 15.0027 10.0516 14.7907 10.4233 14.5183C10.7021 14.3141 10.9718 14.1446 11.0225 14.1414C11.0733 14.1384 11.3426 14.0141 11.621 13.8653C12.143 13.5862 12.3379 13.6088 12.3379 13.9484C12.3379 14.0367 12.3704 14.1496 12.41 14.1996C12.4496 14.2495 12.7011 14.8711 12.9688 15.5809C13.2364 16.2906 13.5502 17.1079 13.6662 17.3971C13.8823 17.9359 14.3168 19.2275 14.454 19.7383C14.5718 20.1772 14.5452 21.2536 14.4074 21.6276C14.3395 21.8118 14.161 22.0797 14.0107 22.223C13.7705 22.452 13.6831 22.4785 13.2906 22.4417C12.81 22.3965 12.7808 22.4308 12.9624 22.8265C13.3673 23.7083 14.4802 24.0817 15.1554 23.5625C15.3263 23.4311 15.498 23.3235 15.5369 23.3235C15.658 23.3235 17.0686 24.5591 17.7903 25.2972C18.1683 25.6838 18.4958 26 18.5182 26C18.5406 26 18.5806 25.4731 18.6072 24.829C18.6578 23.6002 18.7867 22.1825 18.8808 21.818C18.9125 21.695 19.0032 21.6029 19.0926 21.6029C19.2592 21.6029 19.8016 21.2864 19.9614 21.096C20.2921 20.7021 20.3858 20.3937 20.3817 19.7113C20.3772 18.9308 20.252 18.6497 20.0535 18.9743C19.8306 19.3386 19.6415 19.5039 19.3248 19.6115C19.0615 19.7009 18.939 19.6903 18.6154 19.5502C17.8583 19.2226 17.256 18.3658 16.6647 16.7757C16.5475 16.4603 16.301 15.8366 16.1171 15.3897C15.5475 14.0053 14.9525 12.4322 14.9525 12.3104C14.9525 12.2266 15.8038 11.7609 16.4285 11.5028C17.5886 11.0236 18.6576 11.5817 18.5185 12.5938C18.4656 12.9785 18.5842 12.9958 18.9728 12.6599C19.5618 12.1507 19.7754 11.0967 19.4224 10.4407C19.2168 10.0585 19.2158 10.0244 19.4039 9.79196C19.4864 9.68997 19.6472 9.45607 19.7612 9.27206C19.9942 8.89611 20.0986 8.7556 20.6449 8.08256C20.8558 7.82265 21.0151 7.56457 20.9989 7.50903C20.9736 7.423 19.2346 7.20535 18.3506 7.17762C18.1097 7.17007 18.07 7.12821 17.9918 6.79929C17.8205 6.07798 17.3139 5.63971 16.6517 5.63971C16.2651 5.63971 15.8803 5.80622 15.8803 5.9735C15.8803 6.03496 15.9704 6.14001 16.0805 6.20674C16.1906 6.27355 16.3277 6.48996 16.3854 6.68764C16.622 7.50052 16.0181 8.30643 14.672 8.97402C14.2162 9.20008 13.8318 9.37032 13.8178 9.35245C13.761 9.27999 12.9322 6.99429 12.8083 6.56835C12.5399 5.64573 12.6959 4.45011 13.1522 3.93298C13.4214 3.62786 13.4649 3.61151 13.9001 3.65243C14.299 3.6899 14.3621 3.67298 14.3621 3.52807C14.3621 3.10796 13.524 2.34315 12.9494 2.23906C12.6058 2.17683 12.0935 2.36036 11.8157 2.64512C11.6518 2.81326 11.7795 2.89585 10.398 1.729C10.0965 1.47426 9.58871 0.981118 9.26963 0.632985C8.95056 0.284853 8.65637 0 8.61597 0C8.57549 0 8.54242 0.464081 8.54242 1.03121Z" fill="black"/>
</svg>
