<svg width="33" height="33" viewBox="0 0 33 33" fill="none" xmlns="http://www.w3.org/2000/svg">
<path fill-rule="evenodd" clip-rule="evenodd" d="M14.8508 0.0815414C12.1208 0.360912 9.59524 1.26186 7.39162 2.74252C6.1089 3.60438 4.63113 4.96147 3.69374 6.13826C0.86543 9.68902 -0.413985 14.0908 0.118037 18.4407C0.217633 19.255 0.322745 19.8386 0.492101 20.5176C1.96887 26.4388 6.6519 31.1216 12.5559 32.5809C14.0045 32.939 14.5765 33.0009 16.4267 33C18.1557 32.999 18.5604 32.9641 19.8674 32.7024C23.0172 32.0718 25.9058 30.527 28.1705 28.262C30.5813 25.851 32.1494 22.8693 32.7601 19.535C33.0714 17.8357 33.0804 15.5746 32.7832 13.7493C31.841 7.96355 27.7222 3.00688 22.1787 0.9876C19.8988 0.157073 17.2787 -0.166858 14.8508 0.0815414ZM15.5075 2.9541C14.7413 3.02426 13.6702 3.20108 12.9688 3.37326C7.61576 4.68731 3.88321 8.83985 3.0877 14.366C2.67088 17.2614 3.1293 20.2095 4.39632 22.7825C5.10947 24.2307 5.88302 25.3011 7.00427 26.3912C9.01978 28.3507 11.4938 29.5246 14.559 29.9756C17.8526 30.4604 21.2074 29.6638 24.1486 27.6988C27.4183 25.5142 29.5721 22.0954 30.0331 18.3581C30.1239 17.622 30.1089 15.473 30.0078 14.7259C29.6794 12.3001 28.8641 10.2634 27.4557 8.35047C25.373 5.52163 22.1086 3.57641 18.5279 3.03037C17.8628 2.92892 16.2322 2.88778 15.5075 2.9541ZM16.5318 5.98046C14.6082 6.06484 14.3705 6.08496 14.0108 6.19409C13.6549 6.30202 13.3134 6.62274 13.2288 6.9285C13.1174 7.33075 13.1889 8.54125 13.4869 11.3024C13.6055 12.4012 13.6464 13.0043 13.6334 13.4596C13.6132 14.1627 13.5572 14.32 13.2522 14.5296C12.8806 14.7849 12.6204 14.8009 8.82043 14.8019C4.94584 14.8029 5.06424 14.7934 4.89887 15.1142C4.78625 15.3324 4.77149 15.5005 4.71308 17.2257C4.68413 18.0803 4.6326 19.2573 4.59851 19.8412C4.54078 20.8306 4.54293 20.9126 4.62976 21.0455C4.75736 21.2408 4.83479 21.223 6.2439 20.6754C10.5882 18.9873 13.1913 18.0099 13.428 17.9781C13.8718 17.9183 14.168 18.2098 14.168 18.7065C14.168 18.9296 14.1135 19.1264 13.1428 22.4138C11.8838 26.6778 11.8981 26.6126 12.1127 27.099C12.1975 27.2911 12.2499 27.3408 12.4167 27.3872C12.6719 27.4583 14.062 27.4598 15.3236 27.3905C17.7991 27.2543 18.9151 27.0263 19.1242 26.6139C19.2342 26.3971 19.3329 25.2887 19.5009 22.3875C19.6219 20.2979 19.731 18.8649 19.7924 18.5589C19.8648 18.1983 20.0357 17.9518 20.2661 17.8756C20.3729 17.8403 21.1699 17.79 22.1553 17.7564C24.8722 17.6636 26.4588 17.5915 26.8429 17.5432C27.2438 17.4928 27.4141 17.4023 27.5699 17.157C27.6871 16.9724 27.6872 17.2367 27.5683 13.9863C27.5292 12.9138 27.5019 12.7998 27.2226 12.5381C27.0264 12.3543 26.4828 12.3332 25.672 12.4779C25.116 12.5771 24.5712 12.6568 22.9404 12.877C20.9206 13.1499 20.7388 13.1546 20.2487 12.9469C19.7701 12.744 19.4735 12.2388 19.4735 11.6263C19.4735 11.289 19.6659 10.3476 19.9979 9.06154C20.3228 7.80269 20.5766 6.6673 20.5766 6.47283C20.5766 6.27784 20.4888 6.09633 20.3496 6.00374C20.1943 5.90034 18.5812 5.89049 16.5318 5.98046ZM16.6961 12.3808C16.5065 12.4247 16.2752 12.6371 15.1205 13.8278C13.229 15.778 13.0043 15.9882 12.3294 16.4371C11.9683 16.6773 11.6551 16.8997 11.6334 16.9313C11.5697 17.0242 11.6112 17.1287 11.7543 17.2357C11.8836 17.3325 11.9087 17.333 12.4635 17.2513C12.7798 17.2046 13.1568 17.1126 13.3012 17.0467C13.4457 16.9808 13.8357 16.7061 14.168 16.4363C15.1836 15.6117 15.6621 15.3478 16.3742 15.2196C16.562 15.1858 17.2593 15.1552 17.9238 15.1517C18.8988 15.1464 19.2067 15.1626 19.519 15.2357C20.0746 15.3659 20.6965 15.6868 21.1568 16.0809C21.7557 16.5938 21.7809 16.6013 22.436 16.4621C22.8523 16.3737 22.993 16.2714 22.993 16.0571C22.993 15.8828 22.9982 15.8864 20.419 14.2668C18.5361 13.0844 17.5714 12.4979 17.4127 12.4393C17.2105 12.3644 16.8819 12.3376 16.6961 12.3808ZM16.6545 13.6372C16.5399 13.7204 16.3676 13.8881 16.2715 14.0098C16.1079 14.2168 16.1024 14.2367 16.1847 14.3194C16.3043 14.4393 17.029 14.4651 17.9064 14.3805C18.872 14.2875 18.9404 14.1514 18.1867 13.8232C17.3071 13.4403 16.9802 13.4006 16.6545 13.6372Z" fill="#555555"/>
</svg>
